:FULLY-SPECIFIED
:FORCE-ALL-JOINTS-BE-3DOF
:DEGREES
985
root 1.11486 15.1524 32.4946 5.3737 -4.67329 364.127
lfemur 8.70483 1.7668 5.16781
ltibia -1.74281e-14 0 0
lfoot -30.1088 -11.713 0
ltoes -33.8701 0 0
rfemur -32.9621 -15.5023 -6.26432
rtibia 50.8461 0 0
rfoot -22.6234 4.98363 0
rtoes -41.9288 0 0
lowerback -1.54541 -0.420379 0.699954
upperback -0.721321 -0.564522 -5.90936
thorax 0.0574781 -0.298546 -6.5356
lowerneck -6.65879 1.14015 5.86937
upperneck 1.06242 0.940502 3.33391
head 1.46593 0.572286 0.0842714
lclavicle -7.36663e-15 -3.2297e-14 0
lhumerus -58.3842 -45.1695 114.806
lradius 55.057 0 0
lwrist 25.2025 0 0
lhand 37.2841 24.467 0
lfingers 7.12502 0 0
lthumb 60.1083 38.1331 0
rclavicle -7.36663e-15 -3.2297e-14 0
rhumerus 3.74979 -25.007 -0.166672
rradius 28.0268 0 0
rwrist -11.3085 0 0
rhand -31.4318 -44.5816 0
rfingers 7.12502 0 0
rthumb -4.70008 -794.509 0
986
root 1.11824 15.1543 32.4888 5.33758 -4.66137 364.112
lfemur 8.71117 1.74285 5.17084
ltibia -1.40204e-14 0 0
lfoot -30.1103 -11.6926 0
ltoes -33.8919 0 0
rfemur -32.8969 -15.5314 -6.25652
rtibia 50.7637 0 0
rfoot -22.6459 4.9707 0
rtoes -42.038 0 0
lowerback -1.52856 -0.398096 0.692475
upperback -0.717036 -0.534701 -5.88853
thorax 0.0562897 -0.28335 -6.50849
lowerneck -6.70855 1.14957 5.85448
upperneck 1.1204 0.947498 3.33979
head 1.49346 0.578266 0.08921
lclavicle -1.08141e-14 -2.7809e-14 0
lhumerus -58.3244 -45.139 114.814
lradius 55.0467 0 0
lwrist 25.1052 0 0
lhand 37.2682 24.438 0
lfingers 7.12502 0 0
lthumb 60.0946 38.1186 0
rclavicle -1.08141e-14 -2.7809e-14 0
rhumerus 3.74721 -24.9293 -0.171793
rradius 28.0007 0 0
rwrist -11.2437 0 0
rhand -31.4452 -44.5496 0
rfingers 7.12502 0 0
rthumb -4.71299 -794.477 0
987
root 1.12126 15.156 32.4832 5.3025 -4.65 364.099
lfemur 8.71829 1.71961 5.17396
ltibia -2.04466e-15 0 0
lfoot -30.1126 -11.6731 0
ltoes -33.9107 0 0
rfemur -32.8359 -15.5603 -6.24971
rtibia 50.6892 0 0
rfoot -22.6717 4.95415 0
rtoes -42.1491 0 0
lowerback -1.50907 -0.377505 0.682289
upperback -0.71403 -0.507247 -5.86922
thorax 0.0520206 -0.269425 -6.48146
lowerneck -6.75306 1.15919 5.83944
upperneck 1.17305 0.955367 3.34773
head 1.51835 0.584492 0.0948194
lclavicle -1.23577e-14 -1.64499e-14 0
lhumerus -58.2831 -45.1273 114.834
lradius 55.0408 0 0
lwrist 25.0247 0 0
lhand 37.2504 24.4079 0
lfingers 7.12502 0 0
lthumb 60.0794 38.1046 0
rclavicle -1.23577e-14 -1.64499e-14 0
rhumerus 3.74571 -24.851 -0.175264
rradius 27.9796 0 0
rwrist -11.1851 0 0
rhand -31.45 -44.5072 0
rfingers 7.12502 0 0
rthumb -4.71765 -794.434 0
988
root 1.1238 15.1573 32.4781 5.2697 -4.63928 364.088
lfemur 8.7258 1.6976 5.17712
ltibia 1.90833e-14 0 0
lfoot -30.1159 -11.6552 0
ltoes -33.9256 0 0
rfemur -32.7814 -15.5868 -6.24436
rtibia 50.6256 0 0
rfoot -22.6997 4.93313 0
rtoes -42.2585 0 0
lowerback -1.48754 -0.359459 0.669615
upperback -0.712469 -0.483304 -5.85243
thorax 0.0446671 -0.257355 -6.4557
lowerneck -6.78983 1.16834 5.82499
upperneck 1.21788 0.963487 3.35806
head 1.53935 0.590558 0.101043
lclavicle -1.22253e-14 0 0
lhumerus -58.2643 -45.1387 114.869
lradius 55.0398 0 0
lwrist 24.9687 0 0
lhand 37.2319 24.379 0
lfingers 7.12502 0 0
lthumb 60.0636 38.0924 0
rclavicle -1.22253e-14 0 0
rhumerus 3.74548 -24.7764 -0.17803
rradius 27.9644 0 0
rwrist -11.1351 0 0
rhand -31.4451 -44.4536 0
rfingers 7.12502 0 0
rthumb -4.71295 -794.381 0
